<svg width="14" height="14" viewBox="0 0 14 14" fill="none" xmlns="http://www.w3.org/2000/svg">
<path d="M5.41912 9.26365L7.68246 7.00032L5.41912 4.73699C5.36512 4.68298 5.32228 4.61887 5.29305 4.5483C5.26382 4.47774 5.24878 4.40211 5.24878 4.32574C5.24878 4.24936 5.26382 4.17373 5.29305 4.10317C5.32228 4.03261 5.36512 3.96849 5.41912 3.91449C5.47313 3.86048 5.53725 3.81764 5.60781 3.78841C5.67837 3.75918 5.754 3.74414 5.83037 3.74414C5.90675 3.74414 5.98238 3.75918 6.05294 3.78841C6.1235 3.81764 6.18762 3.86048 6.24162 3.91449L8.91912 6.59199C9.14662 6.81949 9.14662 7.18699 8.91912 7.41449L6.24162 10.092C6.18766 10.1461 6.12356 10.189 6.05299 10.2182C5.98242 10.2475 5.90677 10.2626 5.83037 10.2626C5.75398 10.2626 5.67833 10.2475 5.60776 10.2182C5.53719 10.189 5.47309 10.1461 5.41912 10.092C5.19746 9.86449 5.19162 9.49115 5.41912 9.26365Z" fill="#424242"/>
</svg>
